<?xml version="1.0" encoding="UTF-8" standalone="no"?>
<!-- Created with Inkscape (http://www.inkscape.org/) -->

<svg
   width="33.845123mm"
   height="61.393196mm"
   viewBox="0 0 33.845124 61.393196"
   version="1.1"
   id="svg1"
   sodipodi:docname="fast_faraday_cup.svg"
   inkscape:version="1.3.2 (091e20e, 2023-11-25)"
   xmlns:inkscape="http://www.inkscape.org/namespaces/inkscape"
   xmlns:sodipodi="http://sodipodi.sourceforge.net/DTD/sodipodi-0.dtd"
   xmlns:xlink="http://www.w3.org/1999/xlink"
   xmlns="http://www.w3.org/2000/svg"
   xmlns:svg="http://www.w3.org/2000/svg">
  <sodipodi:namedview
     id="namedview1"
     pagecolor="#505050"
     bordercolor="#eeeeee"
     borderopacity="1"
     inkscape:showpageshadow="0"
     inkscape:pageopacity="0"
     inkscape:pagecheckerboard="0"
     inkscape:deskcolor="#505050"
     inkscape:document-units="mm"
     showgrid="false"
     inkscape:zoom="3.855722"
     inkscape:cx="130.06643"
     inkscape:cy="129.93675"
     inkscape:window-width="2560"
     inkscape:window-height="1387"
     inkscape:window-x="0"
     inkscape:window-y="25"
     inkscape:window-maximized="1"
     inkscape:current-layer="svg1" />
  <defs
     id="defs1">
    <pattern
       xlink:href="#Polkadots-large"
       preserveAspectRatio="xMidYMid"
       id="pattern66"
       patternTransform="scale(10)" />
    <pattern
       patternUnits="userSpaceOnUse"
       width="10"
       height="10"
       patternTransform="translate(0,0) scale(10,10)"
       preserveAspectRatio="xMidYMid"
       id="Polkadots-large">
      <circle
         style="stroke:none"
         cx="2.567"
         cy="0.810"
         r="0.45"
         id="circle584" />
      <circle
         style="stroke:none"
         cx="3.048"
         cy="2.33"
         r="0.45"
         id="circle586" />
      <circle
         style="stroke:none"
         cx="4.418"
         cy="2.415"
         r="0.45"
         id="circle588" />
      <circle
         style="stroke:none"
         cx="1.844"
         cy="3.029"
         r="0.45"
         id="circle590" />
      <circle
         style="stroke:none"
         cx="6.08"
         cy="1.363"
         r="0.45"
         id="circle592" />
      <circle
         style="stroke:none"
         cx="5.819"
         cy="4.413"
         r="0.45"
         id="circle594" />
      <circle
         style="stroke:none"
         cx="4.305"
         cy="4.048"
         r="0.45"
         id="circle596" />
      <circle
         style="stroke:none"
         cx="5.541"
         cy="3.045"
         r="0.45"
         id="circle598" />
      <circle
         style="stroke:none"
         cx="4.785"
         cy="5.527"
         r="0.45"
         id="circle600" />
      <circle
         style="stroke:none"
         cx="2.667"
         cy="5.184"
         r="0.45"
         id="circle602" />
      <circle
         style="stroke:none"
         cx="7.965"
         cy="1.448"
         r="0.45"
         id="circle604" />
      <circle
         style="stroke:none"
         cx="7.047"
         cy="5.049"
         r="0.45"
         id="circle606" />
      <circle
         style="stroke:none"
         cx="4.340"
         cy="0.895"
         r="0.45"
         id="circle608" />
      <circle
         style="stroke:none"
         cx="7.125"
         cy="0.340"
         r="0.45"
         id="circle610" />
      <circle
         style="stroke:none"
         cx="7.125"
         cy="10.340"
         r="0.45"
         id="circle612" />
      <circle
         style="stroke:none"
         cx="9.550"
         cy="1.049"
         r="0.45"
         id="circle614" />
      <circle
         style="stroke:none"
         cx="7.006"
         cy="2.689"
         r="0.45"
         id="circle616" />
      <circle
         style="stroke:none"
         cx="8.909"
         cy="2.689"
         r="0.45"
         id="circle618" />
      <circle
         style="stroke:none"
         cx="9.315"
         cy="4.407"
         r="0.45"
         id="circle620" />
      <circle
         style="stroke:none"
         cx="7.820"
         cy="3.870"
         r="0.45"
         id="circle622" />
      <circle
         style="stroke:none"
         cx="8.270"
         cy="5.948"
         r="0.45"
         id="circle624" />
      <circle
         style="stroke:none"
         cx="7.973"
         cy="7.428"
         r="0.45"
         id="circle626" />
      <circle
         style="stroke:none"
         cx="9.342"
         cy="8.072"
         r="0.45"
         id="circle628" />
      <circle
         style="stroke:none"
         cx="8.206"
         cy="9.315"
         r="0.45"
         id="circle630" />
      <circle
         style="stroke:none"
         cx="9.682"
         cy="9.475"
         r="0.45"
         id="circle632" />
      <circle
         style="stroke:none"
         cx="-0.318"
         cy="9.475"
         r="0.45"
         id="circle634" />
      <circle
         style="stroke:none"
         cx="9.688"
         cy="6.186"
         r="0.45"
         id="circle636" />
      <circle
         style="stroke:none"
         cx="-0.312"
         cy="6.186"
         r="0.45"
         id="circle638" />
      <circle
         style="stroke:none"
         cx="3.379"
         cy="6.296"
         r="0.45"
         id="circle640" />
      <circle
         style="stroke:none"
         cx="2.871"
         cy="8.204"
         r="0.45"
         id="circle642" />
      <circle
         style="stroke:none"
         cx="4.59"
         cy="8.719"
         r="0.45"
         id="circle644" />
      <circle
         style="stroke:none"
         cx="3.181"
         cy="9.671"
         r="0.45"
         id="circle646" />
      <circle
         style="stroke:none"
         cx="3.181"
         cy="-0.329"
         r="0.45"
         id="circle648" />
      <circle
         style="stroke:none"
         cx="5.734"
         cy="7.315"
         r="0.45"
         id="circle650" />
      <circle
         style="stroke:none"
         cx="6.707"
         cy="6.513"
         r="0.45"
         id="circle652" />
      <circle
         style="stroke:none"
         cx="5.730"
         cy="9.670"
         r="0.45"
         id="circle654" />
      <circle
         style="stroke:none"
         cx="5.730"
         cy="-0.330"
         r="0.45"
         id="circle656" />
      <circle
         style="stroke:none"
         cx="6.535"
         cy="8.373"
         r="0.45"
         id="circle658" />
      <circle
         style="stroke:none"
         cx="4.37"
         cy="7.154"
         r="0.45"
         id="circle660" />
      <circle
         style="stroke:none"
         cx="0.622"
         cy="7.25"
         r="0.45"
         id="circle662" />
      <circle
         style="stroke:none"
         cx="0.831"
         cy="5.679"
         r="0.45"
         id="circle664" />
      <circle
         style="stroke:none"
         cx="1.257"
         cy="8.519"
         r="0.45"
         id="circle666" />
      <circle
         style="stroke:none"
         cx="1.989"
         cy="6.877"
         r="0.45"
         id="circle668" />
      <circle
         style="stroke:none"
         cx="0.374"
         cy="3.181"
         r="0.45"
         id="circle670" />
      <circle
         style="stroke:none"
         cx="10.374"
         cy="3.181"
         r="0.45"
         id="circle672" />
      <circle
         style="stroke:none"
         cx="1.166"
         cy="1.664"
         r="0.45"
         id="circle674" />
      <circle
         style="stroke:none"
         cx="1.151"
         cy="0.093"
         r="0.45"
         id="circle676" />
      <circle
         style="stroke:none"
         cx="1.151"
         cy="10.093"
         r="0.45"
         id="circle678" />
      <circle
         style="stroke:none"
         cx="1.302"
         cy="4.451"
         r="0.45"
         id="circle680" />
      <circle
         style="stroke:none"
         cx="3.047"
         cy="3.763"
         r="0.45"
         id="circle682" />
    </pattern>
  </defs>
  <path
     d="M 0.20000473,0.45142903 0.2005215,49.854098 a 3.1627541,4.4880986 0 0 1 3.0923177,4.482414 3.1627541,4.4880986 0 0 1 -3.0923177,4.472078 v 2.133204 L 13.360959,49.005571 a 3.1627541,4.4880986 0 0 1 -0.173116,-1.436605 3.1627541,4.4880986 0 0 1 3.163114,-4.488098 3.1627541,4.4880986 0 0 1 2.176095,1.238684 l 5.940722,-5.387784 a 3.1627541,4.4880986 0 0 1 -0.497644,-2.340943 3.1627541,4.4880986 0 0 1 3.162598,-4.488098 3.1627541,4.4880986 0 0 1 2.637565,2.019515 l 3.777547,-3.426147 -0.05839,-0.05323 a 3.1627541,4.4880986 0 0 1 -0.220663,0.04961 3.1627541,4.4880986 0 0 1 -2.942456,-2.918168 l -4.266406,-3.869014 a 3.1627541,4.4880986 0 0 1 -1.412834,0.534334 3.1627541,4.4880986 0 0 1 -3.162597,-4.488098 3.1627541,4.4880986 0 0 1 0.02015,-0.178284 L 8.8583909,8.3041797 A 3.1627541,4.4880986 0 0 1 6.1877529,10.466838 3.1627541,4.4880986 0 0 1 3.0246385,5.9787402 3.1627541,4.4880986 0 0 1 3.5687913,3.5070565 Z M 8.1814297,15.985881 A 3.1627541,4.4880986 0 0 1 11.344027,20.473979 3.1627541,4.4880986 0 0 1 8.1814297,24.962078 3.1627541,4.4880986 0 0 1 5.0183152,20.473979 3.1627541,4.4880986 0 0 1 8.1814297,15.985881 Z M 4.657097,27.368649 A 3.1627541,4.4880986 0 0 1 7.8196946,31.856747 3.1627541,4.4880986 0 0 1 4.657097,36.344845 3.1627541,4.4880986 0 0 1 1.4944993,31.856747 3.1627541,4.4880986 0 0 1 4.657097,27.368649 Z m 10.940934,0.501778 a 3.1627541,4.4880986 0 0 1 3.162598,4.488098 3.1627541,4.4880986 0 0 1 -3.162598,4.488099 3.1627541,4.4880986 0 0 1 -3.163114,-4.488099 3.1627541,4.4880986 0 0 1 3.163114,-4.488098 z m -7.8935748,14.76499 a 3.1627541,4.4880986 0 0 1 3.1625978,4.488099 3.1627541,4.4880986 0 0 1 -3.1625978,4.488098 3.1627541,4.4880986 0 0 1 -3.1631144,-4.488098 3.1627541,4.4880986 0 0 1 3.1631144,-4.488099 z"
     style="fill:#333333;stroke:#000000;stroke-width:0.4"
     id="path19" />
  <path
     d="M 8.1814297,15.985881 A 3.1627541,4.4880986 0 0 0 5.0183152,20.473979 3.1627541,4.4880986 0 0 0 8.1814297,24.962078 3.1627541,4.4880986 0 0 0 11.344027,20.473979 3.1627541,4.4880986 0 0 0 8.1814297,15.985881 Z"
     style="stroke-width:0.670893"
     id="path29" />
  <path
     d="M 4.657097,27.368649 A 3.1627541,4.4880986 0 0 0 1.4944993,31.856747 3.1627541,4.4880986 0 0 0 4.657097,36.344845 3.1627541,4.4880986 0 0 0 7.8196946,31.856747 3.1627541,4.4880986 0 0 0 4.657097,27.368649 Z"
     style="stroke-width:0.670893"
     id="path27" />
  <path
     d="M 7.7044562,42.635417 A 3.1627541,4.4880986 0 0 0 4.5413418,47.123516 3.1627541,4.4880986 0 0 0 7.7044562,51.611614 3.1627541,4.4880986 0 0 0 10.867054,47.123516 3.1627541,4.4880986 0 0 0 7.7044562,42.635417 Z"
     style="stroke-width:0.670893"
     id="path25" />
  <path
     d="m 15.598031,27.870427 a 3.1627541,4.4880986 0 0 0 -3.163114,4.488098 3.1627541,4.4880986 0 0 0 3.163114,4.488099 3.1627541,4.4880986 0 0 0 3.162598,-4.488099 3.1627541,4.4880986 0 0 0 -3.162598,-4.488098 z"
     style="stroke-width:0.670893"
     id="path28" />
  <path
     d="M 0.2005215,58.80859 A 3.1627541,4.4880986 0 0 0 3.2928392,54.336512 3.1627541,4.4880986 0 0 0 0.2005215,49.854098 Z"
     style="stroke:#000000;stroke-width:0.4;stroke-miterlimit:0.4"
     id="path26" />
  <path
     d="m 18.527052,44.319552 a 3.1627541,4.4880986 0 0 0 -2.176095,-1.238684 3.1627541,4.4880986 0 0 0 -3.163114,4.488098 3.1627541,4.4880986 0 0 0 0.173116,1.436605 z"
     style="stroke:#000000;stroke-width:0.4;stroke-miterlimit:0.4"
     id="path24" />
  <path
     d="m 29.770293,34.122242 a 3.1627541,4.4880986 0 0 0 -2.637565,-2.019515 3.1627541,4.4880986 0 0 0 -3.162598,4.488098 3.1627541,4.4880986 0 0 0 0.497644,2.340943 z"
     style="stroke:#000000;stroke-width:0.4;stroke-miterlimit:0.4"
     id="path23" />
  <path
     d="m 30.326331,27.774309 a 3.1627541,4.4880986 0 0 0 2.942456,2.918168 3.1627541,4.4880986 0 0 0 0.220659,-0.04961 z"
     style="stroke:#000000;stroke-width:0.4;stroke-miterlimit:0.4"
     id="path22" />
  <path
     d="m 21.504648,19.773247 a 3.1627541,4.4880986 0 0 0 -0.02015,0.178284 3.1627541,4.4880986 0 0 0 3.162597,4.488098 3.1627541,4.4880986 0 0 0 1.412834,-0.534334 z"
     style="stroke:#000000;stroke-width:0.4;stroke-miterlimit:0.4"
     id="path21" />
  <path
     d="M 3.5687913,3.5070565 A 3.1627541,4.4880986 0 0 0 3.0246385,5.9787402 3.1627541,4.4880986 0 0 0 6.1877529,10.466838 3.1627541,4.4880986 0 0 0 8.8583909,8.3041797 Z"
     style="stroke:#000000;stroke-width:0.4;stroke-miterlimit:0.4"
     id="path20" />
</svg>
