<?xml version="1.0" encoding="UTF-8" standalone="no"?>
<!-- Created with Inkscape (http://www.inkscape.org/) -->

<svg
   width="129.19115mm"
   height="51.011021mm"
   viewBox="0 0 129.19115 51.011021"
   version="1.1"
   id="svg1"
   xmlns="http://www.w3.org/2000/svg"
   xmlns:svg="http://www.w3.org/2000/svg">
  <defs
     id="defs1" />
  <g
     id="layer1"
     transform="translate(-40.404416,-122.99447)">
    <path
       d="m 51.329118,123.69451 c -5.646844,0 -10.224699,3.29012 -10.224699,7.34854 v 4.02747 l 56.8149,10.74735 14.091361,-0.0651 56.8849,-10.68228 v -4.02747 c 1e-5,-4.05844 -4.57782,-7.34855 -10.22469,-7.34854 l -40.11022,11.37601 H 91.439331 Z m 46.574724,27.47294 -56.799423,10.76203 v 4.02747 c 0,4.05848 4.577765,7.34854 10.224699,7.34854 l 40.110213,-11.37601 h 27.121339 l 40.11022,11.37601 c 5.64688,0 10.2247,-3.29009 10.22469,-7.34854 v -4.02747 l -56.80347,-10.75803 z"
       style="fill:#c18e49;fill-opacity:1;stroke:#000000;stroke-width:1.4;stroke-linecap:butt;stroke-linejoin:bevel;stroke-dasharray:none;stroke-opacity:1;paint-order:stroke markers fill"
       id="path33" />
    <path
       d="m 41.104419,135.07052 v 26.85896 l 56.799423,-10.76203 14.188268,0.004 56.80347,10.75818 v -26.85896 l -56.8849,10.6821 -14.091361,0.0651 z"
       style="fill:#a1d3d3;fill-opacity:1;stroke:#000000;stroke-width:0.3;stroke-dasharray:none;stroke-opacity:1;paint-order:stroke markers fill"
       id="path34" />
    <ellipse
       style="fill:#a1d3d3;fill-opacity:1;stroke:#9ebebe;stroke-width:0.289;stroke-linecap:butt;stroke-linejoin:miter;stroke-dasharray:none;stroke-opacity:1;paint-order:stroke markers fill"
       id="path35"
       cx="105.00001"
       cy="148.5"
       rx="8.3799486"
       ry="5.0148606" />
    <path
       d="m 105.02759,146.26712 c -0.46699,0.001 -0.9587,-0.23364 -1.40394,-0.15769 v 4.7811 c 0.44524,0.0759 0.90915,-0.077 1.37614,-0.0755 0.46716,-0.001 0.93126,0.15147 1.37666,0.0755 v -4.78472 c -0.44575,-0.0747 -0.88204,0.16158 -1.34886,0.16131 z"
       style="fill:#9ebebe;fill-opacity:1;stroke:#000000;stroke-width:0.15;stroke-linejoin:bevel;paint-order:markers fill stroke"
       id="path69" />
    <path
       d="m 106.37645,146.10581 v 4.78472 c 1.94426,-0.32472 3.27103,-1.29325 3.27474,-2.39055 -7.8e-4,-1.09863 -1.32811,-2.06905 -3.27474,-2.39417 z m -2.7528,0.004 c -1.94426,0.32472 -3.27103,1.29325 -3.27474,2.39055 0.004,1.0973 1.33048,2.06583 3.27474,2.39055 z"
       style="fill:#c4e4e4;stroke:#000000;stroke-width:0.15;stroke-linejoin:bevel;paint-order:markers fill stroke"
       id="path68" />
    <path
       style="fill:#9a7c4c;fill-opacity:1;stroke:none;stroke-width:0.49;stroke-linecap:butt;stroke-linejoin:bevel;stroke-dasharray:none;stroke-opacity:1;paint-order:markers fill stroke"
       id="path41"
       d="m 109.12971,135.07051 a 4.129703,2.9741182 0 0 1 -2.06485,2.57566 4.129703,2.9741182 0 0 1 -4.1297,0 4.129703,2.9741182 0 0 1 -2.06486,-2.57566 h 4.12971 z" />
    <path
       style="fill:#000000;fill-opacity:1;stroke:none;stroke-width:0.326708;stroke-linecap:butt;stroke-linejoin:bevel;stroke-dasharray:none;stroke-opacity:1;paint-order:markers fill stroke"
       id="path43"
       d="m 107.75314,135.07051 a 2.7531354,1.9827455 0 0 1 -1.37656,1.71711 2.7531354,1.9827455 0 0 1 -2.75314,0 2.7531354,1.9827455 0 0 1 -1.37657,-1.71711 h 2.75314 z" />
    <path
       style="fill:#9a7c4c;fill-opacity:1;stroke:none;stroke-width:0.490063;stroke-linecap:butt;stroke-linejoin:bevel;stroke-dasharray:none;stroke-opacity:1;paint-order:markers fill stroke"
       id="path45"
       d="m 109.12971,-161.92949 a 4.129703,2.9741182 0 0 1 -2.06485,2.57566 4.129703,2.9741182 0 0 1 -4.1297,0 4.129703,2.9741182 0 0 1 -2.06486,-2.57566 h 4.12971 z"
       transform="scale(1,-1)" />
    <path
       style="fill:#000000;fill-opacity:1;stroke:none;stroke-width:0.326708;stroke-linecap:butt;stroke-linejoin:bevel;stroke-dasharray:none;stroke-opacity:1;paint-order:markers fill stroke"
       id="path44"
       d="m 107.75314,-161.92947 a 2.7531354,1.9827455 0 0 1 -1.37656,1.7171 2.7531354,1.9827455 0 0 1 -2.75314,0 2.7531354,1.9827455 0 0 1 -1.37657,-1.7171 h 2.75314 z"
       transform="scale(1,-1)" />
    <rect
       style="fill:#000000;fill-opacity:1;stroke:none;stroke-width:0.764771;stroke-linecap:butt;stroke-linejoin:bevel;stroke-dasharray:none;stroke-opacity:1;paint-order:markers fill stroke"
       id="rect44"
       width="2.7531209"
       height="7.4232445"
       x="103.62344"
       y="136.06189" />
    <rect
       style="fill:none;fill-opacity:1;stroke:none;stroke-width:0.628575;stroke-linecap:butt;stroke-linejoin:bevel;stroke-dasharray:none;stroke-opacity:1;paint-order:markers fill stroke"
       id="rect66"
       width="2.7531209"
       height="5.014679"
       x="103.62344"
       y="145.99266" />
    <rect
       style="fill:#000000;fill-opacity:1;stroke:none;stroke-width:0.764771;stroke-linecap:butt;stroke-linejoin:bevel;stroke-dasharray:none;stroke-opacity:1;paint-order:markers fill stroke"
       id="rect69"
       width="2.7531209"
       height="7.4232445"
       x="103.62344"
       y="153.51486" />
  </g>
</svg>
