<?xml version="1.0" encoding="UTF-8" standalone="no"?>
<!-- Created with Inkscape (http://www.inkscape.org/) -->

<svg
   width="45.009071mm"
   height="70.041656mm"
   viewBox="0 0 45.009071 70.041656"
   version="1.1"
   id="svg1"
   xmlns:xlink="http://www.w3.org/1999/xlink"
   xmlns="http://www.w3.org/2000/svg"
   xmlns:svg="http://www.w3.org/2000/svg">
  <defs
     id="defs1">
    <pattern
       xlink:href="#ZigZag"
       preserveAspectRatio="none"
       id="pattern489"
       patternTransform="scale(0.2,0.1)"
       x="-74"
       y="79" />
    <pattern
       patternUnits="userSpaceOnUse"
       width="100"
       height="90"
       patternTransform="scale(0.2)"
       id="ZigZag"
       style="fill:#000000"
       x="0"
       y="0"
       preserveAspectRatio="none">
      <path
         style="opacity:1;fill-opacity:1;stroke:none;stroke-width:1;stroke-dasharray:none"
         d="M 50,90 0,40 V 10 L 50,60 100,10 V 40 L 50,90"
         id="zigzag-path-pattern" />
    </pattern>
    <linearGradient
       id="swatch210">
      <stop
         style="stop-color:#6a3f3f;stop-opacity:1;"
         offset="0"
         id="stop210" />
    </linearGradient>
  </defs>
  <g
     id="layer1"
     transform="translate(-82.495462,-113.47917)">
    <g
       id="g491"
       transform="translate(-5.35e-5,1.1990246e-5)">
      <path
         d="m 83.167017,114.15066 v 23.08024 h 7.979874 v -23.08024 z m 21.832773,0 c -4.42371,0.033 -8.357928,9.28992 -9.809218,23.08024 h 19.639108 c -1.45379,-13.81395 -5.39858,-23.07619 -9.82989,-23.08024 z m 13.8529,0 v 23.08024 h 7.9804 v -23.08024 z m -35.685673,45.6184 v 23.08024 h 7.979874 v -23.08024 z m 12.023555,0 c 1.451299,13.7904 5.385478,23.0472 9.809218,23.08024 4.42393,-0.0323 8.35838,-9.28925 9.80974,-23.08024 z m 23.662118,0 v 23.08024 h 7.9804 v -23.08024 z"
         style="fill:url(#pattern489);stroke:#000000;stroke-width:1.343;stroke-dasharray:none;paint-order:stroke fill markers"
         id="path489" />
      <path
         d="m 83.167017,137.2309 v 22.53816 h 7.979874 V 137.2309 Z m 12.023555,0 v 22.53816 H 114.80953 V 137.2309 Z m 23.662118,0 v 22.53816 h 7.9804 V 137.2309 Z"
         style="fill:#6a3f3f;fill-opacity:0;stroke:#000000;stroke-width:1.343;stroke-dasharray:none;paint-order:stroke fill markers"
         id="path491" />
    </g>
  </g>
</svg>
