<?xml version="1.0" encoding="UTF-8" standalone="no"?>
<!-- Created with Inkscape (http://www.inkscape.org/) -->

<svg
   width="72.724792mm"
   height="72.724808mm"
   viewBox="0 0 72.724792 72.724808"
   version="1.1"
   id="svg1"
   xml:space="preserve"
   xmlns="http://www.w3.org/2000/svg"
   xmlns:svg="http://www.w3.org/2000/svg"><defs
     id="defs1"><clipPath
       clipPathUnits="userSpaceOnUse"
       id="clipPath20"><path
         id="path20"
         style="font-variation-settings:normal;opacity:1;vector-effect:none;fill:#ffffff;fill-opacity:1;stroke:#000000;stroke-width:0.687028;stroke-linecap:butt;stroke-linejoin:miter;stroke-miterlimit:4;stroke-dasharray:none;stroke-dashoffset:0;stroke-opacity:1;-inkscape-stroke:none;stop-color:#000000;stop-opacity:1"
         d="m 93.224152,135.59113 -23.253951,-12.8312 10.498492,-20.51526 23.253947,12.83119 z m -7.387435,-15.00232 c 0.01542,-0.0266 0.02844,-0.055 0.03835,-0.0862 0.0395,-0.13584 0.02856,-0.26131 -0.07084,-0.36725 -0.0063,-0.005 -0.01266,-0.009 -0.01895,-0.014 -0.01936,-0.0635 -0.04476,-0.12475 -0.08133,-0.18121 -0.01278,-0.0208 -0.02606,-0.0414 -0.03895,-0.0622 -0.02288,-0.0891 -0.09526,-0.18417 -0.232071,-0.25967 l -0.01765,-0.01 c -0.02214,-0.014 -0.04501,-0.0269 -0.06923,-0.0382 l -0.13257,-0.0731 -0.07556,-0.0417 c -0.0075,-0.075 -0.01868,-0.18381 -0.01992,-0.3545 -1.4e-4,-0.0177 -0.15114,-0.0349 -0.163051,-0.0363 -0.05857,-0.002 -0.11702,-0.009 -0.175517,-0.013 -0.02505,-0.002 -0.04998,-0.005 -0.07496,-0.008 -0.03286,-0.006 -0.06571,-0.0132 -0.09849,-0.0207 -0.07054,-0.013 -0.140461,-0.0362 -0.209041,-0.0575 -0.07083,-0.0222 -0.142475,-0.0357 -0.214384,-0.0516 -0.09048,-0.0198 -0.181397,-0.0269 -0.270867,-0.001 -0.03172,0.0162 -0.0787,0.0168 -0.09526,0.049 -0.07982,0.15481 -0.110381,0.21163 -0.09195,0.28627 -0.01044,0.0423 -0.01139,0.086 0.0048,0.12895 0.0168,0.0446 0.03951,0.0868 0.05932,0.13012 0.09,0.11409 0.214414,0.18899 0.337479,0.26117 0.0061,0.006 0.01281,0.0122 0.01981,0.018 -0.0012,0.002 -0.0016,0.004 -0.0028,0.007 0.01992,0.0108 0.03998,0.0218 0.05997,0.0325 0.0052,0.003 0.0095,0.006 0.0149,0.009 0.02083,0.013 0.04282,0.0233 0.06521,0.0324 0.02232,0.0117 0.04471,0.0229 0.06727,0.0341 -0.0046,7e-4 -0.0092,0.001 -0.01372,0.002 -0.08148,0.0105 -0.162036,0.0263 -0.243205,0.0387 -0.06374,0.009 -0.126299,0.0229 -0.189512,0.0347 -0.264471,0.0267 -0.184375,-0.0896 -0.22733,0.50432 -0.0156,-0.008 0.04066,0.0222 0.04639,0.025 0.03875,0.0199 0.07809,0.0389 0.117534,0.0572 0.0482,0.0217 0.09741,0.0409 0.147188,0.0582 -0.0673,-0.002 -0.06514,0.0505 -0.04276,0.17767 -0.03843,0.0129 -0.07683,0.0267 -0.114101,0.0427 -0.08721,0.0509 -0.158411,0.11135 -0.191649,0.21237 -0.0022,0.006 -0.0032,0.0115 -0.0053,0.0172 -0.0085,10e-6 -0.01685,-3.3e-4 -0.02531,-4e-4 -0.04101,-0.0238 -0.08662,-0.0382 -0.138972,-0.0436 -0.07077,-0.009 -0.141532,-0.0144 -0.212644,-0.0176 -0.05251,-0.004 -0.104808,-0.0204 -0.156773,-0.0293 -0.0074,-0.002 -0.01466,-0.004 -0.02205,-0.006 -0.0027,-0.001 -0.0055,-0.002 -0.0082,-0.003 -0.139425,-0.0617 -0.136608,-0.0121 -0.174525,0.21179 -0.02967,-0.004 -0.05935,-0.007 -0.08906,-0.0108 -0.03703,-0.002 -0.0736,-0.006 -0.110296,-0.0101 0.01072,-0.0419 0.0173,-0.0894 0.02099,-0.14305 0.0041,-0.0599 -0.07641,-0.12987 -0.108525,-0.16435 -0.06146,-0.0546 -0.134444,-0.0813 -0.210654,-0.0997 0.0072,-0.009 0.0146,-0.0193 0.021,-0.0297 0.0088,-0.0144 0.02217,-0.029 0.02123,-0.0461 -0.0047,-0.0871 -0.0252,-0.17297 -0.03787,-0.25934 -0.07218,-0.0949 -0.170167,-0.12898 -0.276021,-0.13638 -0.01322,-0.0374 -0.033,-0.0734 -0.04662,-0.11071 -0.05957,-0.0725 -0.140399,-0.11602 -0.222796,-0.15422 0.05655,-0.36641 0.170968,-0.34483 0.0079,-0.41349 -0.02061,-0.009 -0.04166,-0.0164 -0.06284,-0.0235 0.0042,-0.0215 -0.03536,-0.0604 -0.06839,-0.0908 0.08035,0.0296 0.162377,0.0543 0.246999,0.0672 0.06649,0.009 0.131648,0.0227 0.196031,0.0432 0.115139,0.0218 0.171708,0.0176 0.285886,-0.0246 0.01311,0.002 0.02629,0.003 0.0394,0.005 0.176055,0.0265 0.352332,0.0389 0.529253,0.027 0.08723,-0.002 0.161989,-0.0228 0.242976,-0.053 0.215044,-0.17361 0.141612,-0.37904 -0.04931,-0.50115 -0.05193,-0.0317 -0.104874,-0.0609 -0.157853,-0.0906 -0.06279,-0.0404 -0.135974,-0.0519 -0.205124,-0.0742 -0.0556,-0.0229 -0.116064,-0.022 -0.173062,-0.0382 -0.03566,-0.0134 -0.07268,-0.0227 -0.109511,-0.0309 0.04871,-0.10343 0.06009,-0.21402 -0.0122,-0.25167 l -0.02217,-0.0122 -0.02579,-0.0142 -0.0068,-0.004 c -0.05285,-0.0292 -0.10595,-0.0585 -0.158811,-0.0876 -0.101817,-0.0562 -0.20357,-0.1124 -0.305407,-0.16852 -0.152136,-0.0838 -0.304231,-0.16727 -0.456558,-0.25071 -0.178698,-0.098 -0.357058,-0.19642 -0.536908,-0.29212 -0.08578,-0.0446 -0.172285,-0.0898 -0.264674,-0.11773 -0.001,-2.8e-4 -0.04526,-0.0123 -0.07755,-0.0174 l -0.0113,-0.006 -0.04072,-0.0225 c -0.0012,0.002 -0.0024,0.003 -0.0035,0.006 -0.04689,-0.006 -0.06106,0.0563 -0.126706,0.2181 -0.02098,0.0334 -0.03923,0.0624 -0.05455,0.0862 -0.08429,-0.0145 -0.164434,-0.0144 -0.252309,0.0373 -0.04896,0.038 -0.09141,0.0848 -0.116606,0.14282 -0.0091,0.0181 -0.01839,0.0358 -0.02709,0.0541 -0.01462,0.032 -0.02875,0.0647 -0.03741,0.0992 -0.01866,0.0856 -0.01384,0.15972 0.0267,0.24373 0.01577,0.0267 -0.0055,-0.0167 -0.003,-0.0282 0.01494,0.0622 0.03798,0.12221 0.07943,0.17132 0.04622,0.0642 0.102665,0.11325 0.168466,0.15493 0.03497,0.027 0.06854,0.0555 0.103209,0.0829 -0.005,0.007 -0.0069,0.0123 -0.01059,0.0184 -0.05045,0.0184 -0.09453,0.0547 -0.125517,0.11488 -0.0074,-9.8e-4 -0.01467,-0.003 -0.02209,-0.003 -0.2164,0.39942 -0.335411,0.31541 -0.186948,0.47643 0.05713,0.0596 0.11936,0.11457 0.192238,0.15271 -0.01984,0.0902 0.08305,0.24172 0.144623,0.29109 0.08304,0.0702 0.173499,0.12599 0.27041,0.17341 0.102347,0.055 0.205289,0.10935 0.308941,0.16162 -0.0311,0.0439 -0.04915,0.10248 -0.04667,0.17964 0.01383,0.1002 0.06154,0.18982 0.147486,0.24015 -0.007,0.016 -0.01307,0.0329 -0.01771,0.0516 0.03525,0.21891 0.0186,0.25687 0.214493,0.34618 0.06135,0.0269 0.123875,0.0514 0.187836,0.0706 0.07915,0.0229 0.15981,0.0391 0.239108,0.0611 0.0047,0.001 0.0094,0.002 0.01409,0.003 -0.0068,0.0457 -0.01668,0.0966 -0.03052,0.15373 0.04044,0.0168 0.08154,0.0329 0.123908,0.0436 0.01621,0.004 0.03259,0.007 0.0489,0.01 -5.51e-4,0.0429 -0.0029,0.088 -0.0113,0.13659 -5.71e-4,0.003 -0.0607,-0.0187 -0.0064,1e-5 0.06782,0.0223 0.136953,0.0393 0.206836,0.0528 0.102145,0.0203 0.204291,0.0397 0.306451,0.0599 0.06704,0.0124 0.134143,0.0248 0.20141,0.035 0.02171,0.025 0.04583,0.0479 0.07107,0.0663 0.101795,0.0748 0.222041,0.0883 0.342297,0.0874 0.08033,0.005 0.160212,3.3e-4 0.239772,-0.009 0.05534,-0.006 0.109962,-0.0178 0.164113,-0.0304 0.171846,0.20326 0.118319,0.16761 0.219018,0.11965 0.07311,-0.0336 0.145649,-0.0679 0.214886,-0.10926 0.06259,-0.0372 0.125088,-0.0745 0.187102,-0.11277 0.0055,0.001 0.01079,0.003 0.01636,0.004 0.100838,0.0169 0.202187,0.018 0.300939,-0.01 0.126987,-0.0316 0.248636,-0.0778 0.359526,-0.14925 0.130117,-0.0898 0.245475,-0.197 0.326224,-0.33702 0.03686,-0.0641 0.07003,-0.13011 0.101507,-0.1972 0.0047,1.9e-4 0.0094,5.5e-4 0.01413,7.3e-4 0.02315,4.4e-4 0.04655,0.002 0.06976,0.004 0.0435,0.0149 0.08689,0.0304 0.130031,0.0464 0.153826,0.0577 0.115438,0.0542 0.164814,-0.1894 0.05353,-0.0219 0.105829,-0.0463 0.156148,-0.075 0.07729,-0.0527 0.146468,-0.11353 0.192946,-0.19336 z m -0.777855,-1.50045 c -0.0035,-4e-4 -0.01416,-0.002 -0.02528,-0.003 0.0038,-2e-5 0.0057,9e-5 0.0098,9e-5 0.01662,0.003 0.01984,0.003 0.01546,0.003 z m -2.902369,1.26106 c -0.006,-2.7e-4 -0.01167,5.1e-4 -0.01758,3.3e-4 -4.6e-5,-3.3e-4 1.3e-4,-8.4e-4 1.9e-5,-0.001 0.0095,5.8e-4 0.02337,0.001 0.01755,8.3e-4 z" /></clipPath></defs><g
     id="layer1"
     transform="translate(-51.637662,-83.343748)"><g
       id="g7"
       transform="matrix(1.7175722,0,0,1.7175722,-87.857943,-47.199726)"><path
         d="M 94.410775,116.50658 82.953593,89.418315 a 20.970921,20.970921 0 0 0 -1.536857,7.757149 20.970921,20.970921 0 0 0 12.994039,19.331116 z"
         style="fill:#ffffff;stroke:#000000;stroke-width:0.4"
         id="path7" /><path
         d="m 121.84218,89.368705 -11.47786,27.137875 a 20.970921,20.970921 0 0 0 12.99404,-19.331116 20.970921,20.970921 0 0 0 -1.51618,-7.806759 z"
         style="fill:#ffffff;stroke:#000000;stroke-width:0.4"
         id="path5" /><path
         d="M 121.84218,89.368705 A 20.970921,20.970921 0 0 0 102.38755,76.204651 20.970921,20.970921 0 0 0 82.953593,89.418315 l 11.457182,27.088265 a 20.970921,20.970921 0 0 0 7.976775,1.6397 20.970921,20.970921 0 0 0 7.97677,-1.6397 z"
         style="fill:#ffffff;stroke:#000000;stroke-width:0.4"
         id="path6" /></g><path
       style="fill:none;fill-rule:evenodd;stroke:#000000;stroke-width:0.264583"
       id="path1"
       d="m 84.427544,119.70615 c 1.027836,0.45733 -0.109383,1.61113 -0.760124,1.70833 -1.763469,0.26339 -2.824158,-1.71755 -2.656539,-3.22858 0.299832,-2.70289 3.2263,-4.13019 5.697035,-3.60475 3.625902,0.7711 5.464101,4.75162 4.552953,8.16549 -1.214417,4.55016 -6.282298,6.80926 -10.633946,5.50116 -5.476104,-1.6461 -8.160088,-7.81541 -6.449367,-13.1024 2.071911,-6.40325 9.349872,-9.51418 15.570856,-7.39757 7.331215,2.49435 10.870328,10.88516 8.345782,18.03931"
       transform="matrix(0.4055163,-0.92854845,-0.91118838,-0.37955917,161.00202,245.39547)"
       clip-path="url(#clipPath20)" /></g></svg>
