<?xml version="1.0" encoding="UTF-8" standalone="no"?>
<!-- Created with Inkscape (http://www.inkscape.org/) -->

<svg
   width="105.69655mm"
   height="187.70053mm"
   viewBox="0 0 105.69655 187.70053"
   version="1.1"
   id="svg1"
   xmlns="http://www.w3.org/2000/svg"
   xmlns:svg="http://www.w3.org/2000/svg">
  <defs
     id="defs1" />
  <g
     id="layer1"
     transform="translate(-52.187112,-54.649722)">
    <path
       d="m 75.813977,55.399719 c 1.847138,1.06e-4 3.344539,1.497881 3.344499,3.345016 v 8.292517 l 6.460071,11.637532 6.460587,11.637533 v 52.879463 h 12.920656 12.92066 V 90.312317 l 6.46059,-11.637533 6.46059,-11.637532 v -8.292517 c -4e-5,-1.847135 1.49736,-3.34491 3.34449,-3.345016 H 117.92045 104.99979 92.079134 Z m 16.265157,98.408461 v 52.87946 l -6.460587,11.63753 -6.460071,11.63754 v 8.29251 c 4e-5,1.84715 -1.497353,3.34491 -3.344499,3.34502 h 16.265157 12.920656 12.92066 16.26567 c -1.84714,-1.1e-4 -3.34453,-1.49787 -3.34449,-3.34502 v -8.29251 l -6.46059,-11.63754 -6.46059,-11.63753 v -52.87946 h -12.92066 z"
       style="fill:#a2d3d3;fill-opacity:1;stroke:#000000;stroke-width:1.5;paint-order:stroke fill markers"
       id="path144" />
    <path
       d="m 59.135925,55.399719 c -3.213566,-5e-6 -5.818771,2.6052 -5.818766,5.818767 v 5.818766 11.637532 L 66.237817,90.312317 V 143.19178 H 92.079134 V 90.312317 L 85.618547,78.674784 79.158476,67.037252 v -8.292517 c 4e-5,-1.847143 -1.497353,-3.34491 -3.344499,-3.345016 h -9.57616 z m 7.101892,98.408461 v 52.87946 l -12.920658,11.63753 v 11.63754 5.81876 c -5e-6,3.21356 2.6052,5.81877 5.818766,5.81877 h 7.101892 9.57616 c 1.847146,-1.1e-4 3.344539,-1.49787 3.344499,-3.34502 v -8.29251 l 6.460071,-11.63754 6.460587,-11.63753 v -52.87946 z"
       style="fill:#be894a;fill-opacity:1;stroke:#000000;stroke-width:1.5;stroke-linejoin:bevel;stroke-opacity:1;paint-order:stroke markers fill"
       id="path145" />
    <path
       d="m 134.18612,55.399719 c -1.84714,1.06e-4 -3.34453,1.497873 -3.34449,3.345016 v 8.292517 l -6.46059,11.637532 -6.46059,11.637533 v 52.879463 h 25.84183 V 90.312317 L 156.68294,78.674784 V 67.037252 61.218486 c 0,-3.213567 -2.60519,-5.818772 -5.81876,-5.818767 h -7.1019 z m -16.26567,98.408461 v 52.87946 l 6.46059,11.63753 6.46059,11.63754 v 8.29251 c -4e-5,1.84715 1.49735,3.34491 3.34449,3.34502 h 9.57616 7.1019 c 3.21357,0 5.81876,-2.60521 5.81876,-5.81877 v -5.81876 -11.63754 l -12.92066,-11.63753 v -52.87946 z"
       style="fill:#be894a;fill-opacity:1;stroke:#000000;stroke-width:1.5;stroke-linejoin:bevel;paint-order:stroke markers fill"
       id="path146" />
    <path
       d="m 53.317159,143.19178 0.05958,5.3082 -0.05958,5.3082 h 12.920658 25.841317 12.920656 12.92066 25.84183 12.92066 c 0.49746,-1.2e-4 0.90072,-2.37666 0.90072,-5.3082 0,-2.93155 -0.40326,-5.30808 -0.90072,-5.3082 H 143.76228 117.92045 104.99979 92.079134 66.237817 Z"
       style="fill:#be894a;stroke:#000000;stroke-width:0.6;stroke-dasharray:none;stroke-opacity:1;paint-order:stroke fill markers"
       id="path153" />
    <path
       style="fill:none;fill-opacity:1;stroke:#000000;stroke-width:0.3;stroke-linecap:butt;stroke-linejoin:bevel;stroke-dasharray:none;stroke-opacity:1;paint-order:stroke markers fill"
       d="m 79.158475,67.037251 c 14.483764,-0.411593 28.780615,-0.851223 51.683155,0"
       id="path147" />
    <path
       style="fill:none;fill-opacity:1;stroke:#000000;stroke-width:0.3;stroke-linecap:butt;stroke-linejoin:bevel;stroke-dasharray:none;stroke-opacity:1;paint-order:stroke markers fill"
       d="m 92.079132,90.312316 c 11.147098,-0.588423 18.134108,-0.374859 25.841318,0"
       id="path148" />
    <path
       style="fill:none;fill-opacity:1;stroke:#000000;stroke-width:0.3;stroke-linecap:butt;stroke-linejoin:bevel;stroke-dasharray:none;stroke-opacity:1;paint-order:stroke markers fill"
       d="m 92.079132,206.68764 c 8.613768,-0.57604 17.227548,-0.7104 25.841318,0"
       id="path149" />
    <path
       style="fill:none;fill-opacity:1;stroke:#000000;stroke-width:0.3;stroke-linecap:butt;stroke-linejoin:bevel;stroke-dasharray:none;stroke-opacity:1;paint-order:stroke markers fill"
       d="m 79.158475,229.96271 c 17.227718,-0.63028 34.455435,-0.65898 51.683155,0"
       id="path150" />
    <path
       d="m 53.013773,143.1513 c -0.31323,1.3e-4 -0.567148,2.39477 -0.567148,5.34868 0,2.9539 0.253918,5.34856 0.567148,5.34869 0.313229,-1.3e-4 0.567148,-2.39479 0.567148,-5.34869 0,-2.95391 -0.253919,-5.34855 -0.567148,-5.34868 z"
       style="fill:#a0723f;fill-opacity:1;stroke:#000000;stroke-width:0.519026;stroke-linejoin:bevel;stroke-dasharray:none;stroke-opacity:1;paint-order:stroke markers fill"
       id="path154" />
  </g>
</svg>
