<?xml version="1.0" encoding="UTF-8" standalone="no"?>
<!-- Created with Inkscape (http://www.inkscape.org/) -->

<svg
   width="103.96802mm"
   height="88.761406mm"
   viewBox="0 0 103.96802 88.761406"
   version="1.1"
   id="svg1"
   xmlns="http://www.w3.org/2000/svg"
   xmlns:svg="http://www.w3.org/2000/svg">
  <defs
     id="defs1" />
  <g
     id="layer1"
     transform="translate(-53.015985,-104.1193)">
    <path
       d="m 77.689333,104.60397 c 0.807669,2e-5 1.553242,0.11703 2.153528,0.31419 1.031772,0.3389 1.442703,2.13822 1.442703,3.2179 0.0213,0.66616 0.151888,1.32542 0.387224,1.95491 0.242729,0.66651 0.599446,1.29226 1.056395,1.85312 l 14.306655,18.3596 c 1.494851,1.91819 2.294781,4.22903 2.283975,6.59805 l -0.02929,6.28437 H 101.13967 105 h 3.86033 1.84914 l -0.0294,-6.28437 c -0.0108,-2.36902 0.78914,-4.67986 2.28398,-6.59805 l 14.30666,-18.3596 c 0.45694,-0.56086 0.81366,-1.18661 1.0564,-1.85312 0.23533,-0.62949 0.36591,-1.28875 0.38722,-1.95491 0,-1.07968 0.41092,-2.879 1.4427,-3.2179 0.60029,-0.19716 1.34585,-0.31417 2.15353,-0.31419 h -10.14417 -11.44414 -5.72229 -5.722295 -11.444134 z m 21.601186,49.20992 0.02929,6.28437 c 0.01081,2.36903 -0.789121,4.67985 -2.283975,6.59804 l -14.306655,18.35961 c -0.456951,0.56087 -0.813664,1.18661 -1.056396,1.85311 -0.235334,0.6295 -0.365922,1.28876 -0.387222,1.95492 0,1.07968 -0.410929,2.879 -1.442704,3.2179 -0.600287,0.19716 -1.345857,0.31417 -2.153528,0.31419 h 10.144237 11.444133 5.722291 5.7223 11.44414 10.14424 c -0.80768,-2e-5 -1.55325,-0.11702 -2.15354,-0.31419 -1.03177,-0.3389 -1.4427,-2.13822 -1.4427,-3.2179 -0.0213,-0.66616 -0.15189,-1.32542 -0.38722,-1.95492 -0.24273,-0.6665 -0.59944,-1.29224 -1.05639,-1.85311 L 112.96415,166.6963 c -1.49485,-1.91819 -2.29478,-4.22901 -2.28397,-6.59804 l 0.0294,-6.28437 h -1.84915 -3.86032 -3.86033 z"
       style="fill:#a2d3d3;stroke:#000000;stroke-width:0.969344;paint-order:stroke fill markers"
       id="path26" />
    <path
       d="m 59.757103,104.60397 c -3.455202,0 -6.256444,1.22835 -6.256444,2.7435 v 2.7435 10.89081 c -8.9e-5,2.9658 2.102985,5.57637 5.163431,6.40943 l 10.892593,2.96519 c 3.06027,0.83323 5.163124,3.44376 5.162974,6.40943 v 6.42028 h 13.113861 2.318303 9.138647 l 0.02929,-6.28437 c 0.0108,-2.36902 -0.789124,-4.67986 -2.283975,-6.59805 l -14.306656,-18.3596 c -0.45695,-0.56086 -0.813665,-1.18661 -1.056396,-1.85312 -0.235334,-0.62949 -0.365878,-1.28875 -0.387222,-1.95491 0,-1.07968 -0.410932,-2.879 -1.442704,-3.2179 -0.600286,-0.19716 -1.345859,-0.31417 -2.153528,-0.31419 H 73.42662 67.393081 Z m 72.553517,0 c -0.80768,2e-5 -1.55325,0.11702 -2.15354,0.31419 -1.03177,0.3389 -1.4427,2.13822 -1.4427,3.2179 -0.0213,0.66616 -0.15189,1.32542 -0.38722,1.95491 -0.24273,0.66651 -0.59944,1.29225 -1.05639,1.85312 l -14.30667,18.3596 c -1.49485,1.9182 -2.29477,4.22902 -2.28397,6.59805 l 0.0294,6.28437 h 9.13865 2.3183 13.11386 v -6.42028 c -1.4e-4,-2.96568 2.1027,-5.5762 5.16298,-6.40943 l 10.89259,-2.96519 c 3.06045,-0.83307 5.16352,-3.44362 5.16343,-6.40943 v -10.89081 -2.7435 c 0,-1.51515 -2.80122,-2.7435 -6.25644,-2.7435 h -7.63599 -6.03354 z m -57.590963,49.20992 v 6.42028 c 1.5e-4,2.96567 -2.102704,5.5762 -5.162974,6.40943 l -10.892593,2.96519 c -3.060446,0.83306 -5.16352,3.44363 -5.163431,6.40943 v 10.8908 2.74351 c 0,1.51515 2.801242,2.7435 6.256444,2.7435 h 7.635983 6.033539 4.262656 c 0.80767,-2e-5 1.553243,-0.11703 2.153528,-0.31419 1.031772,-0.3389 1.442704,-2.13822 1.442704,-3.2179 0.02134,-0.66616 0.151887,-1.32542 0.387223,-1.95492 0.24273,-0.6665 0.599446,-1.29225 1.056396,-1.85311 L 97.035787,166.6963 c 1.494851,-1.91818 2.294772,-4.22902 2.283975,-6.59804 l -0.02929,-6.28437 H 90.15182 87.833518 Z m 35.989763,0 -0.0294,6.28437 c -0.0108,2.36903 0.78913,4.67985 2.28398,6.59804 l 14.30666,18.35961 c 0.45694,0.56087 0.81366,1.18661 1.0564,1.85311 0.23533,0.6295 0.36586,1.28876 0.38722,1.95492 0,1.07968 0.41092,2.879 1.4427,3.2179 0.60029,0.19716 1.34585,0.31417 2.15353,0.31419 h 4.26265 6.03354 7.63598 c 3.45521,0 6.25645,-1.22835 6.25645,-2.7435 v -2.74351 -10.8908 c 8e-5,-2.96581 -2.10298,-5.57637 -5.16344,-6.40943 l -10.89258,-2.96519 c -3.06029,-0.83323 -5.16313,-3.44376 -5.16297,-6.40943 v -6.42028 h -13.11387 -2.3183 z"
       style="fill:#be894a;stroke:#000000;stroke-width:0.969344;stroke-linejoin:bevel;paint-order:stroke markers fill"
       id="path27" />
    <path
       d="m 57.188484,143.18611 c -0.423035,1.2e-4 -0.766207,2.37911 -0.766207,5.31389 0,2.93478 0.343172,5.31377 0.766207,5.31389 h 10.987797 6.543428 13.113862 2.318302 9.138647 1.84915 3.86033 3.86033 1.84914 9.13865 2.31831 13.11386 6.54342 10.9878 c 0.42304,-1.2e-4 0.76621,-2.37911 0.76621,-5.31389 0,-2.93479 -0.34317,-5.31377 -0.76621,-5.31389 h -10.9878 -6.54342 -13.11386 -2.31831 -9.13865 -1.84914 H 105 101.13967 99.29052 90.151873 87.833571 74.719709 68.176281 Z"
       style="fill:#be894a;stroke:#000000;stroke-width:0.553611;stroke-opacity:1;paint-order:stroke fill markers"
       id="path25" />
    <path
       style="fill:none;stroke:#000000;stroke-width:0.282339;stroke-linecap:butt;stroke-linejoin:bevel;stroke-dasharray:none;stroke-opacity:1;paint-order:markers fill stroke"
       d="m 81.672796,110.09097 c 16.070141,0.27339 31.616414,0.32523 46.654404,0"
       id="path28" />
    <path
       style="fill:none;stroke:#000000;stroke-width:0.282339;stroke-linecap:butt;stroke-linejoin:bevel;stroke-dasharray:none;stroke-opacity:1;paint-order:markers fill stroke"
       d="m 98.910588,133.96404 c 4.489142,0.0935 8.658252,0.21019 12.178822,0"
       id="path29" />
    <path
       style="fill:none;stroke:#000000;stroke-width:0.282339;stroke-linecap:butt;stroke-linejoin:bevel;stroke-dasharray:none;stroke-opacity:1;paint-order:markers fill stroke"
       d="m 98.912177,163.02494 c 4.169033,-0.22097 8.187123,-0.14005 12.175643,0"
       id="path30" />
    <path
       style="fill:none;stroke:#000000;stroke-width:0.282339;stroke-linecap:butt;stroke-linejoin:bevel;stroke-dasharray:none;stroke-opacity:1;paint-order:markers fill stroke"
       d="m 81.672796,186.90902 c 14.307345,-0.35546 29.792744,-0.37434 46.654404,0"
       id="path31" />
  </g>
</svg>
