<?xml version="1.0" encoding="UTF-8" standalone="no"?>
<!-- Created with Inkscape (http://www.inkscape.org/) -->

<svg
   width="33.120232mm"
   height="33.016586mm"
   viewBox="0 0 33.120232 33.016585"
   version="1.1"
   id="svg1"
   xmlns:xlink="http://www.w3.org/1999/xlink"
   xmlns="http://www.w3.org/2000/svg"
   xmlns:svg="http://www.w3.org/2000/svg">
  <defs
     id="defs1">
    <linearGradient
       id="linearGradient46">
      <stop
         style="stop-color:#080930;stop-opacity:1;"
         offset="0"
         id="stop46" />
      <stop
         style="stop-color:#0010ff;stop-opacity:0;"
         offset="1"
         id="stop47" />
    </linearGradient>
    <linearGradient
       xlink:href="#linearGradient46"
       id="linearGradient47"
       x1="-157.8212"
       y1="167.62582"
       x2="-142.30847"
       y2="170.30562"
       gradientUnits="userSpaceOnUse"
       gradientTransform="translate(142.30847,-116.79867)" />
  </defs>
  <g
     id="g1"
     transform="matrix(0.86219268,0,0,0.32479694,-6.6756544e-7,1.0831782e-6)">
    <path
       id="path44"
       style="fill:#00ff00;fill-opacity:1;stroke:#000000;stroke-width:1.722;stroke-linejoin:round;stroke-dasharray:none;stroke-opacity:1;paint-order:stroke fill markers"
       d="m 11.108013,0.884073 c 3.05611,0.004 5.638303,18.59122 6.035803,43.44644 -0.0604,2.15334 -0.0917,4.32359 -0.0935,6.49676 0.002,2.15956 0.0324,4.31628 0.092,6.45646 -0.39525,24.86581 -2.977163,43.472017 -6.034253,43.485197 h 15.703953 v 0 c 0.16286,0.0668 -0.16334,-0.029 0,0 5.66171,8.6e-4 10.7409,-22.494257 10.74094,-49.941657 2e-5,-27.4476 -5.07919,-49.94406 -10.74094,-49.9432 -0.16334,0.029 0.16286,-0.0668 0,0 v 0 z" />
    <ellipse
       style="fill:#00ff00;fill-opacity:1;stroke:#000000;stroke-width:1.722;stroke-linejoin:round;stroke-dasharray:none;stroke-opacity:1;paint-order:stroke fill markers"
       id="ellipse45"
       cx="-11.112249"
       cy="50.82716"
       rx="10.251248"
       ry="49.697048"
       transform="scale(-1,1)" />
    <ellipse
       style="fill:url(#linearGradient47);fill-opacity:1;stroke:#000000;stroke-width:0.81438;stroke-linejoin:round;stroke-dasharray:none;stroke-opacity:1;paint-order:stroke fill markers"
       id="ellipse46"
       cx="-10.257437"
       cy="50.82716"
       rx="4.8481021"
       ry="23.503122"
       transform="scale(-1,1)" />
  </g>
</svg>
