<?xml version="1.0" encoding="UTF-8" standalone="no"?>
<!-- Created with Inkscape (http://www.inkscape.org/) -->

<svg
   width="42.341625mm"
   height="42.341644mm"
   viewBox="0 0 42.341625 42.341644"
   version="1.1"
   id="svg1"
   xmlns="http://www.w3.org/2000/svg"
   xmlns:svg="http://www.w3.org/2000/svg">
  <defs
     id="defs1" />
  <g
     id="layer1"
     transform="translate(-81.21673,-76.004644)">
    <g
       id="g7">
      <path
         d="M 94.410775,116.50658 82.953593,89.418315 a 20.970921,20.970921 0 0 0 -1.536857,7.757149 20.970921,20.970921 0 0 0 12.994039,19.331116 z"
         style="fill:#ffffff;stroke:#000000;stroke-width:0.4"
         id="path7" />
      <path
         d="m 121.84218,89.368705 -11.47786,27.137875 a 20.970921,20.970921 0 0 0 12.99404,-19.331116 20.970921,20.970921 0 0 0 -1.51618,-7.806759 z"
         style="fill:#ffffff;stroke:#000000;stroke-width:0.4"
         id="path5" />
      <path
         d="M 121.84218,89.368705 A 20.970921,20.970921 0 0 0 102.38755,76.204651 20.970921,20.970921 0 0 0 82.953593,89.418315 l 11.457182,27.088265 a 20.970921,20.970921 0 0 0 7.976775,1.6397 20.970921,20.970921 0 0 0 7.97677,-1.6397 z"
         style="fill:#ffffff;stroke:#000000;stroke-width:0.4"
         id="path6" />
    </g>
  </g>
</svg>
